<svg xmlns="http://www.w3.org/2000/svg" xmlns:xlink="http://www.w3.org/1999/xlink" version="1.1" style="enable-background:new 0 0 473.654 473.654;" xml:space="preserve" width="473.65399169921875" height="473.65399169921875"><rect id="backgroundrect" width="100%" height="100%" x="0" y="0" fill="none" stroke="none"/>

















<g class="currentLayer" style=""><title>Layer 1</title><circle style="" cx="236.82699584960938" cy="236.82699584960938" r="236.82699584960938" id="svg_1" class="selected" fill="#009899" fill-opacity="1"/><path style="fill:#FFFFFF;" d="M424.285,216.091c-27.011-27.011-54.018-54.022-81.029-81.033  c-17.124-17.127-47.781-4.529-47.781,19.737c0,13.051,0,26.098,0,39.15c-70.951,0-141.898,0-212.845,0  c-54.332,0-54.815,84.159-0.606,84.159c71.153,0,142.302,0,213.455,0c0,11.937,0,23.873,0,35.81  c-0.146,1.731-0.105,3.455,0.108,5.153c0.8,12.038,8.04,19.764,17.09,23.141c8.867,4.353,19.711,4.241,29.008-3.803  c1.511-1.148,2.891-2.464,4.121-3.953c26.233-26.229,52.466-52.462,78.696-78.692C435.342,244.916,435.047,226.85,424.285,216.091z" id="svg_2"/><g id="svg_3">
</g><g id="svg_4">
</g><g id="svg_5">
</g><g id="svg_6">
</g><g id="svg_7">
</g><g id="svg_8">
</g><g id="svg_9">
</g><g id="svg_10">
</g><g id="svg_11">
</g><g id="svg_12">
</g><g id="svg_13">
</g><g id="svg_14">
</g><g id="svg_15">
</g><g id="svg_16">
</g><g id="svg_17">
</g><image id="svg_18" x="209" y="50" width="1" height="0" xlink:href="logo/vector_paint_icon256.png" style="color: rgb(0, 0, 0);"/></g></svg>