<svg xmlns="http://www.w3.org/2000/svg" xmlns:xlink="http://www.w3.org/1999/xlink" version="1.1" style="" xml:space="preserve" width="496.1579895019531" height="496.1579895019531"><rect id="backgroundrect" width="100%" height="100%" x="0" y="0" fill="none" stroke="none"/>

















<g class="currentLayer" style=""><title>Layer 1</title><path style="" d="M496.158,248.085c0-137.021-111.07-248.082-248.076-248.082C111.07,0.002,0,111.062,0,248.085  c0,137.002,111.07,248.071,248.083,248.071C385.088,496.155,496.158,385.086,496.158,248.085z" id="svg_1" class="selected" fill="#009899" fill-opacity="1"/><g id="svg_2">
	<path style="fill:#FFFFFF;" d="M223.082,121.066h-60.006c-5.523,0-10,4.479-10,10v234.024c0,5.523,4.477,10,10,10h60.006   c5.523,0,10-4.477,10-10V131.066C233.082,125.545,228.605,121.066,223.082,121.066z" id="svg_3"/>
	<path style="fill:#FFFFFF;" d="M333.082,121.066h-60.006c-5.523,0-10,4.479-10,10v234.024c0,5.523,4.477,10,10,10h60.006   c5.523,0,10-4.477,10-10V131.066C343.082,125.545,338.605,121.066,333.082,121.066z" id="svg_4"/>
</g><g id="svg_5">
</g><g id="svg_6">
</g><g id="svg_7">
</g><g id="svg_8">
</g><g id="svg_9">
</g><g id="svg_10">
</g><g id="svg_11">
</g><g id="svg_12">
</g><g id="svg_13">
</g><g id="svg_14">
</g><g id="svg_15">
</g><g id="svg_16">
</g><g id="svg_17">
</g><g id="svg_18">
</g><g id="svg_19">
</g><image id="svg_20" x="308" y="61" width="1" height="1" xlink:href="logo/vector_paint_icon256.png" style="color: rgb(0, 152, 153);"/></g></svg>